Coordinates
version=1
nRows=24
nColumns=24
inDegrees=yes

Units are S.I. units (second, meters, Newtons, ...)
Angles are in degrees.

endheader
time	pelvis_tilt	pelvis_list	pelvis_rotation	pelvis_tx	pelvis_ty	pelvis_tz	hip_flexion_r	hip_adduction_r	hip_rotation_r	knee_angle_r	ankle_angle_r	subtalar_angle_r	mtp_angle_r	hip_flexion_l	hip_adduction_l	hip_rotation_l	knee_angle_l	ankle_angle_l	subtalar_angle_l	mtp_angle_l	lumbar_extension	lumbar_bending	lumbar_rotation
      0.52500000	     -4.48747126	      1.76347276	      6.52272537	     -0.78343732	      1.01992533	      0.31422198	     24.72947303	     -0.14056530	     -9.31754805	      3.14926918	      5.31488217	      2.74825158	      5.88554066	     -8.53486227	      6.47390231	      7.10203748	     -9.98956776	      9.74130379	     -2.03738078	     -1.56794253	     -2.22381834	     -5.31155752	     -5.31852225
      0.52916667	     -4.44238276	      1.71820719	      6.56962883	     -0.77742732	      1.01943745	      0.31430087	     24.65094727	      0.01283139	     -9.25922476	      2.88785537	      5.46260316	      2.61464671	      5.89682824	     -8.62903283	      6.39360314	      7.15080100	    -10.60544984	      9.74488393	     -2.06458905	     -1.56123019	     -2.21383168	     -5.27369954	     -5.31115412
      0.53333333	     -4.40991349	      1.67773913	      6.60537983	     -0.77139610	      1.01891713	      0.31440707	     24.57378511	      0.16482695	     -9.03906600	      2.59835276	      5.48527984	      2.18954784	      5.97196843	     -8.63972071	      6.30375911	      6.93207172	    -11.36646651	      9.93742442	     -1.60978533	     -1.47767992	     -2.16024744	     -5.23341972	     -5.33269853
      0.53750000	     -4.35545787	      1.62008263	      6.64270645	     -0.76533293	      1.01844484	      0.31449259	     24.48602960	      0.32913627	     -8.84826590	      2.23351187	      5.47197806	      1.77631092	      6.08254900	     -8.67388062	      6.19915927	      6.78927397	    -12.12240327	     10.02893532	     -1.32545435	     -1.35030945	     -2.13740686	     -5.16634669	     -5.32838344
      0.54166667	     -4.28563044	      1.55173703	      6.68545868	     -0.75922522	      1.01802388	      0.31453873	     24.37817119	      0.49718561	     -8.63164144	      1.82618558	      5.44527387	      1.32529902	      6.19619767	     -8.71054175	      6.08586118	      6.67866402	    -12.90608094	     10.08735008	     -1.09560097	     -1.21472188	     -2.13227542	     -5.06521849	     -5.33680078
      0.54583333	     -4.22295630	      1.48452857	      6.71374766	     -0.75310508	      1.01758974	      0.31462007	     24.28830298	      0.66816107	     -8.39401032	      1.38081160	      5.21242885	      0.72066598	      6.38617265	     -8.70923692	      5.96827573	      6.46843060	    -13.74312402	     10.11380924	     -0.76651054	     -0.97369669	     -2.11146767	     -5.00258280	     -5.33731041
      0.55000000	     -4.16172777	      1.40362139	      6.74656805	     -0.74693756	      1.01716798	      0.31466679	     24.19562148	      0.84624621	     -8.11929951	      0.90457151	      5.03176997	      0.11756737	      6.55585391	     -8.69084586	      5.84167931	      6.29895267	    -14.60801635	     10.08923763	     -0.53330913	     -0.75028253	     -2.07505826	     -4.87127200	     -5.34994389
      0.55416667	     -4.05563663	      1.32747834	      6.78386408	     -0.74075188	      1.01684190	      0.31470989	     24.05244158	      1.02042559	     -7.87570840	      0.42863583	      4.59879396	     -0.60833486	      8.91120175	     -8.70917577	      5.70995966	      6.12444244	    -15.47807328	      9.93008129	     -0.32567467	      2.41585038	     -2.10211532	     -4.77941265	     -5.29025932
      0.55833333	     -3.98965383	      1.24532340	      6.80952182	     -0.73454096	      1.01645154	      0.31476843	     23.95790160	      1.19839528	     -7.58163165	     -0.08452887	      4.23297061	     -1.31043755	      8.94532061	     -8.64522019	      5.57199388	      5.86179242	    -16.43516891	      9.86072165	     -0.01208147	      2.50492442	     -2.07095203	     -4.67779762	     -5.35737039
      0.56250000	     -3.88859157	      1.14949012	      6.83441813	     -0.72829215	      1.01613581	      0.31482936	     23.81374457	      1.39507699	     -7.26142947	     -0.57924874	      3.74945726	     -2.11412883	      9.01981921	     -8.59967896	      5.41140785	      5.58927439	    -17.41643405	      9.72607051	      0.28800205	      2.67844766	     -2.07866775	     -4.54564546	     -5.34658029
      0.56666667	     -3.80895397	      1.06097144	      6.86185875	     -0.72203632	      1.01581662	      0.31489623	     23.69276783	      1.57948363	     -6.93431553	     -1.08079075	      3.18599889	     -2.95390666	      9.12602233	     -8.50686588	      5.25596597	      5.30953536	    -18.43850657	      9.53580224	      0.58453431	      2.92577078	     -2.05235157	     -4.42126972	     -5.34599641
      0.57083333	     -3.71608832	      0.96519391	      6.88289109	     -0.71575331	      1.01552575	      0.31497991	     23.55619043	      1.77401977	     -6.60570874	     -1.58022497	      2.55799641	     -3.82170620	      9.26840224	     -8.40771206	      5.08486062	      4.99893349	    -19.49192721	      9.29531637	      0.89227519	      3.26213115	     -2.04374683	     -4.29334908	     -5.33879025
      0.57500000	     -3.61329720	      0.86636631	      6.90958676	     -0.70946633	      1.01528897	      0.31506142	     23.40640189	      1.96839205	     -6.28355646	     -2.07719341	      1.86452056	     -4.68623185	      9.42780042	     -8.28565444	      4.89828036	      4.64950198	    -20.59061815	      8.98837193	      1.22243420	      3.65982528	     -2.04540261	     -4.15238251	     -5.33088627
      0.57916667	     -3.51277508	      0.76830903	      6.93252751	     -0.70317279	      1.01506464	      0.31516401	     23.26186375	      2.16156375	     -5.96979192	     -2.57965708	      1.13995730	     -5.55444473	      9.61440594	     -8.13973927	      4.70422243	      4.28302629	    -21.72114803	      8.62346744	      1.55010114	      4.15334752	     -2.04126840	     -4.01768743	     -5.31657769
      0.58333333	     -3.40991623	      0.67301377	      6.95226462	     -0.69686116	      1.01489085	      0.31526285	     23.11567619	      2.34610063	     -5.69314200	     -3.08366293	      0.35416193	     -6.35101721	     11.67974810	     -7.98681715	      4.50933116	      3.92890888	    -22.83298762	      7.94246525	      1.68855684	      9.75397552	     -2.03812360	     -3.89006912	     -5.27935401
      0.58750000	     -3.31608412	      0.55196941	      6.97740288	     -0.69056191	      1.01469567	      0.31539256	     22.99923619	      2.55104129	     -5.48199476	     -3.63206944	     -0.32762975	     -7.03639256	     11.67683318	     -7.76300079	      4.25675499	      3.44756134	    -24.06716221	      7.51371918	      2.15644911	      9.86463596	     -2.02592606	     -3.72116640	     -5.28022661
      0.59166667	     -3.18935682	      0.43956695	      7.00062443	     -0.68426436	      1.01462878	      0.31553841	     22.83012620	      2.75290314	     -5.22690121	     -4.14613755	     -1.07351923	     -7.79752274	     11.69007371	     -7.56633982	      4.00476893	      2.99928820	    -25.29102202	      6.91646906	      2.50484077	     10.07883421	     -2.05341982	     -3.56594500	     -5.25477735
      0.59583333	     -3.10989081	      0.33040116	      7.02383621	     -0.67799303	      1.01450218	      0.31570852	     22.72914979	      2.94130849	     -4.99863826	     -4.69995607	     -1.76575351	     -8.49495910	     11.71815735	     -7.28227112	      3.74581281	      2.51786483	    -26.56405746	      6.25715870	      2.87328646	     10.40669514	     -2.02588821	     -3.42804273	     -5.22499283
      0.60000000	     -2.96963611	      0.20088223	      7.04565777	     -0.67171430	      1.01451676	      0.31589666	     22.55888833	      3.15473334	     -4.81180070	     -5.24553988	     -2.43067482	     -9.12027108	     11.75074533	     -7.03979413	      3.43680378	      1.99850697	    -27.85780320	      5.53215863	      3.27387834	     10.81575729	     -2.07156627	     -3.24995076	     -5.19012495
      0.60416667	     -2.88433162	      0.09291677	      7.07919233	     -0.66547981	      1.01449729	      0.31607851	     22.45993178	      3.32946954	     -4.65026651	     -5.82625755	     -3.03739016	     -9.68410171	     12.24334024	     -6.72201384	      3.15616720	      1.55061903	    -29.14357981	      4.49060140	      3.43697749	     16.38462846	     -2.06321107	     -3.12208456	     -5.15134516
      0.60833333	     -2.76363454	     -0.04247914	      7.10157325	     -0.65925831	      1.01454613	      0.31629986	     22.34344449	      3.53271165	     -4.57004790	     -6.45400238	     -3.48124341	    -10.05701501	     12.22871047	     -6.39401560	      2.80620124	      0.98602697	    -30.51339817	      3.64950405	      3.88126821	     16.46940318	     -2.08758765	     -2.93668049	     -5.12080878
      0.61250000	     -2.64027267	     -0.18054739	      7.12927579	     -0.65306945	      1.01464552	      0.31653882	     22.21535195	      3.73883455	     -4.46644303	     -7.06480373	     -3.93370705	    -10.49342461	     12.20685101	     -6.04274185	      2.43975892	      0.44071820	    -31.90195178	      2.66712839	      4.24625112	     16.64619913	     -2.12044125	     -2.75903445	     -5.07603784
      0.61666667	     -2.53077167	     -0.31482231	      7.16644678	     -0.64691551	      1.01477112	      0.31677605	     22.10359927	      3.93294060	     -4.38418469	     -7.68736439	     -4.29717135	    -10.87173652	     11.89653429	     -5.65608935	      2.07146492	     -0.05743382	    -33.29098476	      1.49664789	      4.47737310	     19.95529256	     -2.14640068	     -2.59215848	     -5.03545871
      0.62083333	     -2.39661970	     -0.46589399	      7.19172954	     -0.64079511	      1.01495030	      0.31705180	     21.98255407	      4.14428746	     -4.37005091	     -8.34965575	     -4.52872543	    -11.08577170	     11.88314598	     -5.26035487	      1.65677230	     -0.60540602	    -34.73358875	      0.40033575	      4.84051593	     20.00200990	     -2.20533671	     -2.39898916	     -4.98649256
